<?xml version="1.0" standalone="no"?>
<!DOCTYPE svg PUBLIC "-//W3C//DTD SVG 20010904//EN"
 "http://www.w3.org/TR/2001/REC-SVG-20010904/DTD/svg10.dtd">
<svg version="1.0" xmlns="http://www.w3.org/2000/svg"
 width="764.000000pt" height="764.000000pt" viewBox="0 0 764.000000 764.000000"
 preserveAspectRatio="xMidYMid meet">
<metadata>
Created by potrace 1.11, written by Peter Selinger 2001-2013
</metadata>
<g transform="translate(0.000000,764.000000) scale(0.100000,-0.100000)"
fill="#000000" stroke="none">
<path d="M3935 6879 c-4 -6 -4 -31 0 -56 6 -41 5 -45 -11 -39 -56 22 -125 30
-249 29 -165 0 -268 -16 -518 -79 -285 -72 -320 -70 -414 19 -64 60 -77 55
-75 -28 1 -31 -3 -55 -9 -55 -5 0 -38 29 -72 64 l-63 64 -22 -57 c-34 -87 -52
-185 -52 -274 0 -73 4 -102 25 -194 5 -22 2 -23 -53 -23 -32 0 -63 -5 -70 -12
-41 -41 19 -260 118 -426 l31 -54 -38 3 -38 3 3 -49 c3 -68 54 -168 115 -228
l49 -48 -6 -107 c-8 -140 6 -316 30 -364 10 -21 21 -38 25 -38 3 0 9 89 12
198 3 116 11 228 20 272 8 41 20 107 27 146 l11 72 43 4 c56 7 131 44 164 83
l27 30 160 1 c113 1 180 6 229 18 95 23 157 52 163 76 4 14 11 18 27 15 11 -3
99 -17 195 -31 96 -14 234 -41 308 -60 73 -19 143 -34 156 -34 12 0 47 -19 77
-41 30 -23 84 -55 119 -71 102 -47 265 -98 312 -98 71 0 73 -4 44 -106 -15
-49 -42 -120 -61 -158 -43 -84 -35 -104 27 -68 l41 24 -9 -34 c-18 -74 -9
-188 26 -301 29 -96 33 -119 29 -192 -3 -63 -11 -95 -31 -136 -14 -29 -24 -55
-22 -58 15 -15 89 25 138 75 54 55 55 55 61 29 12 -46 34 -23 77 83 26 64 60
85 139 86 l55 1 23 50 c69 144 98 401 72 640 -12 115 -33 192 -73 274 -18 36
-33 69 -35 74 -2 4 7 7 21 7 13 0 30 6 37 14 9 12 5 17 -30 26 -22 6 -54 23
-70 38 -25 23 -31 38 -40 112 -13 102 -55 230 -101 307 -41 68 -123 152 -184
188 -25 14 -161 64 -303 111 -309 102 -442 164 -517 240 -56 58 -60 60 -70 43z"/>
<path d="M2846 5294 c-49 -17 -80 -44 -67 -57 5 -5 33 0 70 13 86 32 174 19
248 -35 34 -26 38 1 5 34 -53 54 -175 75 -256 45z"/>
<path d="M3984 5289 c-41 -10 -83 -43 -71 -55 4 -4 35 1 69 11 43 12 79 15
115 11 62 -7 156 -41 173 -61 17 -20 30 -19 30 3 0 62 -198 119 -316 91z"/>
<path d="M3042 4999 c-112 -56 -191 -229 -163 -359 20 -91 89 -197 151 -230
29 -15 94 65 121 149 26 80 35 218 20 291 -12 56 -60 161 -77 167 -5 2 -28 -7
-52 -18z"/>
<path d="M4165 4971 c-55 -33 -121 -115 -144 -177 -31 -80 -27 -205 9 -279 29
-60 100 -134 153 -159 l39 -18 30 28 c16 16 43 58 61 94 30 60 32 72 32 165 0
75 -6 118 -23 171 -22 73 -94 194 -115 194 -7 0 -25 -8 -42 -19z"/>
<path d="M2517 4554 c-13 -13 -7 -55 8 -61 20 -7 23 -4 27 32 3 29 -18 46 -35
29z"/>
<path d="M4841 4134 c-26 -33 -27 -66 -3 -87 40 -36 102 -4 102 52 0 60 -62
82 -99 35z"/>
<path d="M4460 3121 c0 -12 49 -62 79 -82 24 -15 24 -15 8 -63 -27 -79 -80
-165 -165 -266 -200 -240 -473 -399 -684 -400 -65 0 -159 27 -220 63 -98 58
-201 194 -238 316 -26 83 -28 222 -3 242 18 16 73 98 73 111 0 5 -21 -3 -48
-16 -75 -38 -113 -46 -367 -81 -60 -8 -172 -20 -249 -25 -164 -12 -207 -28
-272 -97 -97 -105 -343 -503 -511 -830 -108 -210 -108 -219 -17 -300 36 -32
95 -76 131 -98 36 -22 65 -45 64 -50 -1 -6 -25 -9 -54 -8 -39 2 -58 -2 -77
-18 l-25 -20 36 17 c35 16 39 16 125 -12 49 -15 95 -34 102 -43 16 -19 15 -1
-1 20 -7 9 -18 14 -24 12 -7 -3 -13 1 -13 7 0 7 -7 10 -15 6 -19 -7 -47 3 -39
15 8 14 40 10 54 -6 7 -9 15 -14 17 -12 2 3 29 -6 61 -19 48 -20 57 -27 57
-48 -1 -13 3 -22 7 -20 4 3 8 13 8 23 0 17 3 17 81 0 44 -9 82 -19 84 -21 5
-6 -87 -333 -95 -336 -5 -2 -7 -9 -4 -15 2 -7 -5 -48 -16 -92 -21 -81 -36
-141 -45 -183 -3 -13 -10 -20 -16 -17 -5 4 -8 1 -7 -7 2 -10 -18 -14 -80 -18
-45 -3 -83 -9 -83 -14 -1 -14 80 -45 118 -45 28 -1 32 -4 35 -34 3 -37 22 -48
233 -138 296 -126 616 -210 970 -255 197 -26 653 -26 850 0 419 53 814 169
1155 339 57 28 65 35 62 57 -2 14 -46 150 -97 304 -98 290 -99 291 -56 330 14
13 19 26 15 41 -6 25 12 34 76 36 l35 2 -35 6 c-34 6 -33 7 26 19 58 12 64 11
100 -10 31 -18 37 -19 31 -6 -4 12 -2 15 7 12 8 -3 17 0 22 7 5 8 3 10 -6 4
-10 -6 -12 -4 -7 9 4 10 7 21 7 24 0 4 5 0 10 -8 8 -13 10 -12 10 3 0 19 45
41 62 31 6 -4 8 -25 4 -51 -4 -33 -2 -49 9 -60 14 -14 19 -10 16 12 -1 6 5 2
12 -7 8 -10 17 -15 20 -12 3 3 15 0 27 -6 l22 -12 -31 -32 c-34 -35 -39 -69
-16 -101 10 -13 13 -30 9 -53 -5 -25 -2 -36 12 -47 18 -13 18 -16 4 -42 -9
-15 -26 -33 -39 -39 -14 -8 -19 -14 -11 -19 6 -4 25 9 44 30 33 35 34 36 40
13 8 -31 7 -40 -2 -34 -5 3 -16 -10 -25 -29 -10 -21 -13 -37 -7 -40 6 -4 8
-17 6 -31 -3 -13 -1 -24 4 -24 13 0 32 38 25 49 -3 5 -2 11 3 13 4 1 19 19 32
38 16 22 18 30 7 21 -16 -13 -17 -11 -15 20 2 23 -1 33 -9 31 -19 -3 -16 25 3
32 29 11 36 6 29 -23 -5 -23 -2 -32 16 -45 l23 -16 -24 -27 c-17 -19 -13 -17
12 6 36 33 39 34 56 18 10 -9 27 -17 38 -16 17 0 16 1 -3 9 -13 5 -23 16 -23
25 0 11 -11 15 -41 15 l-41 0 4 38 3 37 -52 -3 c-58 -3 -72 8 -53 43 11 20 9
28 -9 53 -11 17 -21 36 -21 44 0 15 60 78 74 78 4 0 16 10 27 23 21 26 23 67
5 152 l-13 60 36 26 c83 60 211 227 211 275 0 12 -20 51 -45 86 -185 263 -224
325 -416 667 -115 205 -163 263 -255 309 -98 49 -186 71 -474 117 -273 44
-370 64 -409 84 -24 13 -41 14 -41 2z m1343 -1686 c-7 -21 -12 -19 -10 4 0 11
5 18 9 15 4 -3 5 -11 1 -19z m-3560 -713 c-7 -29 -55 -30 -114 -2 l-44 21 45
-6 c25 -3 61 -1 80 3 19 5 36 8 37 7 1 0 0 -11 -4 -23z"/>
<path d="M1876 1461 c-4 -6 -4 -11 0 -11 4 0 -1 -9 -11 -20 -30 -33 -9 -34 39
-1 41 28 96 42 96 24 0 -5 -38 -29 -84 -56 -46 -26 -86 -54 -89 -62 -7 -18 6
-13 92 35 205 112 171 55 -42 -72 -83 -49 -104 -65 -96 -73 9 -8 169 76 169
88 0 8 11 19 24 25 14 6 43 27 64 47 38 34 42 35 98 31 l59 -5 -55 10 c-30 5
-66 17 -79 26 -31 20 -175 31 -185 14z"/>
<path d="M5384 1309 c-3 -6 -2 -15 3 -20 5 -5 9 -1 9 11 0 23 -2 24 -12 9z"/>
<path d="M1970 1297 c0 -13 -82 -71 -125 -87 -15 -6 -40 -10 -56 -10 -23 0
-29 -4 -29 -21 0 -12 4 -17 11 -13 14 8 132 -16 141 -30 4 -6 10 -7 14 -3 11
10 -12 30 -48 43 l-31 10 54 31 c49 28 105 93 80 93 -6 0 -11 -6 -11 -13z"/>
<path d="M5406 1271 c-4 -5 3 -7 14 -4 23 6 26 13 6 13 -8 0 -17 -4 -20 -9z"/>
<path d="M5481 1137 c-13 -21 -12 -21 5 -5 10 10 16 20 13 22 -3 3 -11 -5 -18
-17z"/>
<path d="M1740 1142 c0 -9 19 -22 90 -66 8 -5 5 2 -7 16 -13 13 -23 26 -23 29
0 2 24 2 52 1 35 -3 50 0 43 6 -14 13 -155 26 -155 14z"/>
<path d="M1724 1058 c6 -36 5 -40 -9 -28 -12 10 -15 10 -15 -3 0 -19 26 -41
40 -32 5 3 10 20 10 36 0 26 2 29 19 19 11 -5 30 -10 43 -10 18 0 11 7 -29 30
-29 17 -55 30 -59 30 -4 0 -4 -19 0 -42z"/>
<path d="M1884 1048 l-19 -23 23 19 c21 18 27 26 19 26 -2 0 -12 -10 -23 -22z"/>
<path d="M5745 1039 c-4 -6 -5 -12 -2 -15 2 -3 7 2 10 11 7 17 1 20 -8 4z"/>
<path d="M5666 955 c-11 -8 -17 -17 -14 -20 2 -3 13 4 23 15 21 23 18 25 -9 5z"/>
<path d="M5847 908 c-17 -35 -33 -96 -24 -88 8 7 47 113 43 117 -2 2 -10 -11
-19 -29z"/>
<path d="M5933 933 c9 -2 23 -2 30 0 6 3 -1 5 -18 5 -16 0 -22 -2 -12 -5z"/>
<path d="M5562 904 c-24 -10 -32 -19 -32 -38 0 -14 -4 -28 -10 -31 -16 -10
-11 -107 9 -143 l17 -34 26 40 c45 68 59 148 35 195 -12 24 -15 24 -45 11z"/>
<path d="M1828 893 c18 -2 45 -2 60 0 15 2 0 4 -33 4 -33 0 -45 -2 -27 -4z"/>
<path d="M2190 806 c0 -2 7 -7 16 -10 8 -3 12 -2 9 4 -6 10 -25 14 -25 6z"/>
<path d="M2030 756 c14 -8 27 -12 29 -10 6 6 -1 11 -29 18 l-25 7 25 -15z"/>
</g>
</svg>
